<svg xmlns="http://www.w3.org/2000/svg" xmlns:xlink="http://www.w3.org/1999/xlink" width="500" zoomAndPan="magnify" viewBox="0 0 375 374.999991" height="500" preserveAspectRatio="xMidYMid meet" version="1.2"><defs><clipPath id="893dcd4845"><path d="M 102 13 L 366 13 L 366 262 L 102 262 Z M 102 13 "/></clipPath><clipPath id="4456184429"><path d="M -64.871094 116.046875 L 260.21875 -64.785156 L 440.320312 258.996094 L 115.230469 439.828125 Z M -64.871094 116.046875 "/></clipPath><clipPath id="ad407ab1b2"><path d="M -64.871094 116.046875 L 260.21875 -64.785156 L 440.320312 258.996094 L 115.230469 439.828125 Z M -64.871094 116.046875 "/></clipPath><clipPath id="d1196a50ad"><path d="M 9 113 L 273 113 L 273 362 L 9 362 Z M 9 113 "/></clipPath><clipPath id="ccf6e16977"><path d="M -64.871094 116.046875 L 260.21875 -64.785156 L 440.320312 258.996094 L 115.230469 439.828125 Z M -64.871094 116.046875 "/></clipPath><clipPath id="5ee4d670e6"><path d="M -64.871094 116.046875 L 260.21875 -64.785156 L 440.320312 258.996094 L 115.230469 439.828125 Z M -64.871094 116.046875 "/></clipPath><clipPath id="be4c1b365a"><path d="M 112 102 L 362 102 L 362 366 L 112 366 Z M 112 102 "/></clipPath><clipPath id="0685a1d751"><path d="M -64.871094 116.046875 L 260.21875 -64.785156 L 440.320312 258.996094 L 115.230469 439.828125 Z M -64.871094 116.046875 "/></clipPath><clipPath id="d3540e23fd"><path d="M -64.871094 116.046875 L 260.21875 -64.785156 L 440.320312 258.996094 L 115.230469 439.828125 Z M -64.871094 116.046875 "/></clipPath><clipPath id="aaf3cfc1f9"><path d="M 144 238 L 237 238 L 237 330 L 144 330 Z M 144 238 "/></clipPath><clipPath id="f97a4c0400"><path d="M -64.871094 116.046875 L 260.21875 -64.785156 L 440.320312 258.996094 L 115.230469 439.828125 Z M -64.871094 116.046875 "/></clipPath><clipPath id="3e4c099a19"><path d="M -64.871094 116.046875 L 260.21875 -64.785156 L 440.320312 258.996094 L 115.230469 439.828125 Z M -64.871094 116.046875 "/></clipPath><clipPath id="e77f3380c6"><path d="M 238 138 L 330 138 L 330 230 L 238 230 Z M 238 138 "/></clipPath><clipPath id="9e989b29cb"><path d="M -64.871094 116.046875 L 260.21875 -64.785156 L 440.320312 258.996094 L 115.230469 439.828125 Z M -64.871094 116.046875 "/></clipPath><clipPath id="e2c90ad3a7"><path d="M -64.871094 116.046875 L 260.21875 -64.785156 L 440.320312 258.996094 L 115.230469 439.828125 Z M -64.871094 116.046875 "/></clipPath><clipPath id="ee4cba6669"><path d="M 12 10 L 263 10 L 263 273 L 12 273 Z M 12 10 "/></clipPath><clipPath id="9f4d758d04"><path d="M -64.871094 116.046875 L 260.21875 -64.785156 L 440.320312 258.996094 L 115.230469 439.828125 Z M -64.871094 116.046875 "/></clipPath><clipPath id="6de9bb5fc1"><path d="M -64.871094 116.046875 L 260.21875 -64.785156 L 440.320312 258.996094 L 115.230469 439.828125 Z M -64.871094 116.046875 "/></clipPath><clipPath id="55bb6cac19"><path d="M 45 145 L 137 145 L 137 238 L 45 238 Z M 45 145 "/></clipPath><clipPath id="07d0bf275e"><path d="M -64.871094 116.046875 L 260.21875 -64.785156 L 440.320312 258.996094 L 115.230469 439.828125 Z M -64.871094 116.046875 "/></clipPath><clipPath id="900a2e3d9c"><path d="M -64.871094 116.046875 L 260.21875 -64.785156 L 440.320312 258.996094 L 115.230469 439.828125 Z M -64.871094 116.046875 "/></clipPath><clipPath id="fb84be5203"><path d="M 138 45 L 230 45 L 230 138 L 138 138 Z M 138 45 "/></clipPath><clipPath id="5d91ca9fe2"><path d="M -64.871094 116.046875 L 260.21875 -64.785156 L 440.320312 258.996094 L 115.230469 439.828125 Z M -64.871094 116.046875 "/></clipPath><clipPath id="3f5b48d434"><path d="M -64.871094 116.046875 L 260.21875 -64.785156 L 440.320312 258.996094 L 115.230469 439.828125 Z M -64.871094 116.046875 "/></clipPath><clipPath id="d7d212bd8d"><path d="M 135.394531 117.238281 L 153.394531 117.238281 L 153.394531 135.238281 L 135.394531 135.238281 Z M 135.394531 117.238281 "/></clipPath></defs><g id="96a0ce5833"><g clip-rule="nonzero" clip-path="url(#893dcd4845)"><g clip-rule="nonzero" clip-path="url(#4456184429)"><g clip-rule="nonzero" clip-path="url(#ad407ab1b2)"><path style=" stroke:none;fill-rule:nonzero;fill:#ff5757;fill-opacity:1;" d="M 157.414062 22.582031 C 144.335938 10.460938 123.828125 11.238281 111.605469 24.339844 C 99.382812 37.433594 100.097656 57.886719 113.183594 70.023438 L 311.390625 253.789062 C 324.125 264.828125 343.472656 264.257812 355.621094 252.105469 C 368.257812 239.421875 368.605469 218.40625 355.609375 206.371094 C 355.105469 205.898438 157.414062 22.582031 157.414062 22.582031 Z M 157.414062 22.582031 "/></g></g></g><g clip-rule="nonzero" clip-path="url(#d1196a50ad)"><g clip-rule="nonzero" clip-path="url(#ccf6e16977)"><g clip-rule="nonzero" clip-path="url(#5ee4d670e6)"><path style=" stroke:none;fill-rule:nonzero;fill:#ff5757;fill-opacity:1;" d="M 64.265625 122.519531 C 51.15625 110.390625 30.644531 111.164062 18.453125 124.277344 C 6.261719 137.386719 6.933594 157.832031 20.035156 169.964844 L 218.230469 353.703125 C 230.964844 364.75 250.3125 364.175781 262.464844 352.023438 C 275.101562 339.339844 275.449219 318.324219 262.449219 306.292969 C 261.957031 305.835938 64.265625 122.519531 64.265625 122.519531 Z M 64.265625 122.519531 "/></g></g></g><g clip-rule="nonzero" clip-path="url(#be4c1b365a)"><g clip-rule="nonzero" clip-path="url(#0685a1d751)"><g clip-rule="nonzero" clip-path="url(#d3540e23fd)"><path style=" stroke:none;fill-rule:nonzero;fill:#ff5757;fill-opacity:1;" d="M 353.136719 157.210938 C 365.359375 144.113281 364.640625 123.664062 351.554688 111.519531 C 338.472656 99.375 317.976562 100.175781 305.75 113.273438 L 120.777344 311.742188 C 109.660156 324.488281 110.160156 343.785156 122.292969 355.863281 C 134.957031 368.417969 156.023438 368.683594 168.136719 355.667969 C 168.601562 355.148438 353.136719 157.210938 353.136719 157.210938 Z M 353.136719 157.210938 "/></g></g></g><g clip-rule="nonzero" clip-path="url(#aaf3cfc1f9)"><g clip-rule="nonzero" clip-path="url(#f97a4c0400)"><g clip-rule="nonzero" clip-path="url(#3e4c099a19)"><path style=" stroke:none;fill-rule:nonzero;fill:#ff5757;fill-opacity:1;" d="M 192.328125 329.714844 C 204.363281 316.792969 219.882812 300.152344 236.535156 282.277344 C 223.632812 270.324219 207.011719 254.90625 189.15625 238.363281 L 144.949219 285.796875 Z M 192.328125 329.714844 "/></g></g></g><g clip-rule="nonzero" clip-path="url(#e77f3380c6)"><g clip-rule="nonzero" clip-path="url(#9e989b29cb)"><g clip-rule="nonzero" clip-path="url(#e2c90ad3a7)"><path style=" stroke:none;fill-rule:nonzero;fill:#ff5757;fill-opacity:1;" d="M 285.496094 229.765625 C 302.21875 211.828125 317.753906 195.175781 329.703125 182.332031 C 316.796875 170.371094 300.164062 154.9375 282.320312 138.394531 L 238.109375 185.828125 Z M 285.496094 229.765625 "/></g></g></g><g clip-rule="nonzero" clip-path="url(#ee4cba6669)"><g clip-rule="nonzero" clip-path="url(#9f4d758d04)"><g clip-rule="nonzero" clip-path="url(#6de9bb5fc1)"><path style=" stroke:none;fill-rule:nonzero;fill:#ff5757;fill-opacity:1;" d="M 253.320312 64.679688 C 265.542969 51.574219 264.824219 31.128906 251.742188 18.988281 C 238.652344 6.847656 218.15625 7.644531 205.933594 20.742188 L 20.96875 219.175781 C 9.832031 231.933594 10.332031 251.230469 22.484375 263.296875 C 35.148438 275.859375 56.199219 276.09375 68.328125 263.105469 C 68.785156 262.617188 253.320312 64.679688 253.320312 64.679688 Z M 253.320312 64.679688 "/></g></g></g><g clip-rule="nonzero" clip-path="url(#55bb6cac19)"><g clip-rule="nonzero" clip-path="url(#07d0bf275e)"><g clip-rule="nonzero" clip-path="url(#900a2e3d9c)"><path style=" stroke:none;fill-rule:nonzero;fill:#ff5757;fill-opacity:1;" d="M 92.496094 237.160156 C 104.535156 224.242188 120.074219 207.589844 136.726562 189.714844 C 118.824219 173.125 102.191406 157.6875 89.351562 145.800781 L 45.140625 193.234375 Z M 92.496094 237.160156 "/></g></g></g><g clip-rule="nonzero" clip-path="url(#fb84be5203)"><g clip-rule="nonzero" clip-path="url(#5d91ca9fe2)"><g clip-rule="nonzero" clip-path="url(#3f5b48d434)"><path style=" stroke:none;fill-rule:nonzero;fill:#ff5757;fill-opacity:1;" d="M 185.679688 137.230469 C 202.402344 119.292969 217.9375 102.640625 229.910156 89.785156 C 211.988281 73.171875 195.339844 57.753906 182.519531 45.847656 L 138.289062 93.296875 Z M 185.679688 137.230469 "/></g></g></g><g clip-rule="nonzero" clip-path="url(#d7d212bd8d)"><path style=" stroke:none;fill-rule:nonzero;fill:#ff5757;fill-opacity:1;" d="M 138.242188 135.207031 C 138.210938 135.203125 138.1875 135.203125 138.167969 135.199219 Z M 150.621094 117.273438 C 150.601562 117.269531 150.578125 117.269531 150.546875 117.265625 Z M 153.355469 132.460938 C 153.359375 132.445312 153.363281 132.417969 153.363281 132.386719 Z M 153.34375 132.625 C 153.34375 132.695312 153.34375 132.765625 153.34375 132.828125 L 153.351562 132.816406 C 153.359375 133.171875 153.359375 133.519531 153.355469 133.859375 C 153.347656 134.304688 153.339844 134.742188 153.332031 135.175781 C 153.09375 135.171875 152.855469 135.167969 152.621094 135.160156 L 152.21875 135.148438 C 151.953125 135.140625 151.6875 135.136719 151.417969 135.132812 C 150.878906 135.125 150.328125 135.128906 149.757812 135.164062 L 149.792969 135.175781 L 148.703125 135.113281 C 148.503906 135.121094 148.449219 135.167969 148.125 135.183594 C 148.277344 135.136719 147.5 135.179688 147.292969 135.136719 C 147.039062 135.15625 147.300781 135.171875 147.371094 135.191406 C 146.328125 135.238281 145.496094 135.15625 144.355469 135.191406 C 145.492188 135.125 145.496094 135.140625 146.277344 135.113281 C 146.171875 135.109375 146.078125 135.105469 145.992188 135.105469 C 145.746094 135.113281 145.476562 135.117188 145.128906 135.113281 C 145.125 135.113281 145.117188 135.113281 145.109375 135.113281 L 145.210938 135.144531 C 145.078125 135.136719 144.976562 135.125 144.847656 135.132812 L 144.917969 135.152344 C 144.875 135.152344 144.769531 135.152344 144.625 135.148438 C 144.1875 135.195312 143.464844 135.132812 143.148438 135.15625 L 143.179688 135.160156 L 143.140625 135.15625 C 143.082031 135.160156 143.035156 135.171875 143.011719 135.183594 C 142.851562 135.179688 142.699219 135.171875 142.550781 135.160156 L 142.5625 135.171875 C 142.527344 135.164062 142.476562 135.15625 142.417969 135.152344 C 142.414062 135.152344 142.40625 135.152344 142.402344 135.152344 C 142.160156 135.136719 141.765625 135.140625 141.359375 135.140625 L 141.503906 135.175781 L 140.847656 135.175781 L 140.847656 135.171875 L 140.558594 135.15625 C 140.617188 135.164062 140.671875 135.175781 140.71875 135.1875 C 140.648438 135.183594 140.597656 135.179688 140.558594 135.171875 C 140.171875 135.167969 139.722656 135.117188 139.28125 135.144531 C 139.574219 135.132812 139.644531 135.1875 139.617188 135.210938 L 138.605469 135.160156 C 138.90625 135.191406 138.507812 135.191406 138.117188 135.1875 C 138.109375 135.191406 138.121094 135.195312 138.167969 135.203125 L 138.007812 135.1875 C 137.933594 135.1875 137.863281 135.1875 137.800781 135.1875 L 137.8125 135.195312 C 137.457031 135.203125 137.113281 135.207031 136.773438 135.199219 C 136.328125 135.191406 135.890625 135.183594 135.457031 135.175781 C 135.460938 134.9375 135.464844 134.703125 135.46875 134.464844 L 135.480469 134.0625 C 135.488281 133.796875 135.496094 133.53125 135.5 133.261719 C 135.507812 132.71875 135.5 132.171875 135.464844 131.601562 L 135.457031 131.632812 L 135.515625 130.546875 C 135.507812 130.347656 135.464844 130.289062 135.445312 129.964844 C 135.496094 130.121094 135.453125 129.339844 135.492188 129.136719 C 135.472656 128.882812 135.460938 129.144531 135.441406 129.214844 C 135.394531 128.167969 135.476562 127.339844 135.441406 126.199219 C 135.507812 127.335938 135.492188 127.339844 135.519531 128.117188 C 135.523438 128.015625 135.523438 127.921875 135.523438 127.835938 C 135.519531 127.589844 135.515625 127.316406 135.515625 126.972656 C 135.515625 126.964844 135.515625 126.957031 135.515625 126.953125 L 135.488281 127.050781 C 135.492188 126.917969 135.507812 126.816406 135.496094 126.691406 L 135.476562 126.761719 C 135.476562 126.71875 135.480469 126.613281 135.484375 126.464844 C 135.433594 126.03125 135.496094 125.308594 135.472656 124.992188 L 135.472656 125.023438 L 135.472656 124.984375 C 135.46875 124.921875 135.460938 124.878906 135.449219 124.855469 C 135.453125 124.695312 135.460938 124.542969 135.46875 124.390625 L 135.460938 124.40625 C 135.46875 124.371094 135.476562 124.320312 135.480469 124.261719 C 135.480469 124.253906 135.480469 124.25 135.480469 124.246094 C 135.496094 124.003906 135.492188 123.605469 135.492188 123.199219 L 135.457031 123.347656 L 135.453125 122.691406 L 135.460938 122.691406 L 135.476562 122.402344 C 135.46875 122.460938 135.457031 122.511719 135.445312 122.5625 C 135.449219 122.492188 135.453125 122.4375 135.457031 122.398438 C 135.464844 122.015625 135.515625 121.5625 135.488281 121.125 C 135.5 121.417969 135.445312 121.488281 135.421875 121.460938 L 135.472656 120.449219 C 135.441406 120.75 135.441406 120.347656 135.445312 119.957031 C 135.441406 119.953125 135.4375 119.964844 135.429688 120.011719 L 135.445312 119.851562 C 135.445312 119.777344 135.445312 119.707031 135.445312 119.644531 L 135.4375 119.65625 C 135.429688 119.300781 135.425781 118.953125 135.433594 118.613281 C 135.441406 118.171875 135.449219 117.734375 135.457031 117.296875 C 135.695312 117.300781 135.929688 117.308594 136.167969 117.3125 L 136.570312 117.324219 C 136.835938 117.332031 137.101562 117.339844 137.371094 117.34375 C 137.910156 117.347656 138.457031 117.34375 139.03125 117.308594 L 138.996094 117.296875 L 140.085938 117.359375 C 140.285156 117.351562 140.339844 117.304688 140.664062 117.289062 C 140.511719 117.335938 141.289062 117.292969 141.496094 117.335938 C 141.75 117.316406 141.488281 117.304688 141.417969 117.285156 C 142.460938 117.234375 143.292969 117.316406 144.433594 117.28125 C 143.296875 117.351562 143.292969 117.332031 142.511719 117.359375 C 142.617188 117.363281 142.707031 117.367188 142.796875 117.367188 C 143.042969 117.359375 143.3125 117.355469 143.660156 117.359375 C 143.664062 117.359375 143.671875 117.359375 143.679688 117.359375 L 143.578125 117.328125 C 143.710938 117.335938 143.8125 117.347656 143.941406 117.339844 L 143.871094 117.320312 C 143.914062 117.320312 144.019531 117.320312 144.164062 117.324219 C 144.601562 117.277344 145.324219 117.339844 145.640625 117.316406 L 145.605469 117.3125 L 145.648438 117.316406 C 145.707031 117.3125 145.753906 117.304688 145.777344 117.289062 C 145.933594 117.292969 146.085938 117.300781 146.238281 117.3125 L 146.226562 117.300781 C 146.261719 117.308594 146.3125 117.316406 146.371094 117.320312 C 146.375 117.320312 146.382812 117.320312 146.386719 117.320312 C 146.628906 117.335938 147.023438 117.332031 147.429688 117.332031 L 147.285156 117.296875 L 147.941406 117.296875 L 147.941406 117.304688 L 148.230469 117.316406 C 148.171875 117.308594 148.117188 117.296875 148.070312 117.285156 C 148.140625 117.289062 148.191406 117.292969 148.230469 117.300781 C 148.617188 117.304688 149.066406 117.355469 149.507812 117.328125 C 149.214844 117.339844 149.144531 117.289062 149.171875 117.265625 L 150.183594 117.3125 C 149.882812 117.28125 150.28125 117.28125 150.671875 117.285156 C 150.679688 117.28125 150.667969 117.277344 150.621094 117.273438 L 150.78125 117.285156 C 150.855469 117.285156 150.925781 117.285156 150.988281 117.285156 L 150.976562 117.277344 C 151.332031 117.269531 151.675781 117.269531 152.015625 117.273438 C 152.460938 117.28125 152.898438 117.289062 153.332031 117.296875 C 153.328125 117.535156 153.324219 117.773438 153.320312 118.007812 L 153.308594 118.410156 C 153.300781 118.675781 153.292969 118.941406 153.289062 119.210938 C 153.28125 119.75 153.289062 120.300781 153.324219 120.871094 L 153.332031 120.835938 L 153.273438 121.925781 C 153.28125 122.125 153.324219 122.179688 153.34375 122.503906 C 153.292969 122.351562 153.335938 123.128906 153.296875 123.335938 C 153.316406 123.589844 153.328125 123.328125 153.347656 123.257812 C 153.394531 124.300781 153.3125 125.132812 153.347656 126.273438 C 153.28125 125.136719 153.296875 125.132812 153.269531 124.351562 C 153.265625 124.457031 153.265625 124.550781 153.265625 124.636719 C 153.269531 124.882812 153.273438 125.152344 153.273438 125.5 C 153.273438 125.507812 153.273438 125.511719 153.273438 125.519531 L 153.300781 125.417969 C 153.296875 125.550781 153.28125 125.652344 153.292969 125.78125 L 153.3125 125.710938 C 153.3125 125.753906 153.308594 125.859375 153.304688 126.003906 C 153.355469 126.441406 153.292969 127.164062 153.316406 127.480469 L 153.316406 127.449219 L 153.316406 127.488281 C 153.320312 127.546875 153.328125 127.59375 153.339844 127.617188 C 153.335938 127.777344 153.328125 127.929688 153.320312 128.078125 L 153.328125 128.066406 C 153.320312 128.101562 153.316406 128.152344 153.3125 128.210938 C 153.308594 128.214844 153.308594 128.222656 153.308594 128.226562 C 153.292969 128.46875 153.300781 128.867188 153.300781 129.273438 L 153.332031 129.125 L 153.335938 129.78125 L 153.328125 129.78125 L 153.3125 130.070312 C 153.324219 130.011719 153.332031 129.957031 153.34375 129.910156 C 153.34375 129.980469 153.335938 130.035156 153.332031 130.074219 C 153.324219 130.457031 153.277344 130.910156 153.300781 131.347656 C 153.292969 131.054688 153.34375 130.984375 153.367188 131.011719 L 153.316406 132.023438 C 153.347656 131.722656 153.351562 132.121094 153.347656 132.511719 C 153.351562 132.519531 153.355469 132.507812 153.359375 132.460938 Z M 153.308594 130.167969 L 153.3125 130.140625 C 153.3125 130.140625 153.308594 130.144531 153.308594 130.144531 Z M 135.480469 120.269531 C 135.476562 120.261719 135.46875 120.21875 135.464844 120.167969 C 135.460938 120.3125 135.460938 120.4375 135.472656 120.425781 Z M 135.480469 122.304688 L 135.476562 122.332031 C 135.476562 122.332031 135.476562 122.328125 135.480469 122.328125 Z M 135.542969 131.816406 C 135.601562 131.566406 135.542969 131.445312 135.566406 131.136719 C 135.570312 131.109375 135.570312 131.085938 135.574219 131.058594 C 135.570312 131.089844 135.566406 131.109375 135.566406 131.136719 C 135.546875 131.3125 135.496094 131.507812 135.542969 131.816406 Z M 135.570312 132.230469 C 135.566406 132.347656 135.566406 132.488281 135.570312 132.582031 C 135.574219 132.433594 135.578125 132.308594 135.570312 132.230469 Z M 135.765625 119.4375 C 135.765625 119.480469 135.761719 119.519531 135.757812 119.546875 C 135.761719 119.601562 135.761719 119.644531 135.765625 119.671875 Z M 137.832031 134.863281 L 137.597656 134.863281 C 137.636719 134.867188 137.675781 134.871094 137.707031 134.871094 C 137.757812 134.871094 137.800781 134.867188 137.832031 134.863281 Z M 138.402344 117.414062 C 138.28125 117.410156 138.144531 117.410156 138.046875 117.414062 C 138.195312 117.417969 138.320312 117.417969 138.402344 117.414062 Z M 138.585938 135.15625 L 138.429688 135.148438 C 138.421875 135.15625 138.375 135.160156 138.324219 135.164062 C 138.472656 135.171875 138.597656 135.171875 138.585938 135.15625 Z M 139.570312 117.414062 C 139.542969 117.410156 139.519531 117.410156 139.496094 117.40625 C 139.320312 117.386719 139.121094 117.335938 138.8125 117.386719 C 139.066406 117.441406 139.1875 117.382812 139.496094 117.40625 C 139.519531 117.410156 139.546875 117.414062 139.570312 117.414062 Z M 140.492188 135.15625 C 140.488281 135.152344 140.488281 135.152344 140.488281 135.152344 L 140.460938 135.148438 Z M 148.328125 117.324219 L 148.296875 117.316406 C 148.300781 117.320312 148.300781 117.320312 148.300781 117.320312 Z M 149.972656 135.085938 C 149.722656 135.027344 149.601562 135.089844 149.292969 135.066406 C 149.269531 135.0625 149.242188 135.058594 149.21875 135.058594 C 149.246094 135.0625 149.269531 135.0625 149.292969 135.066406 C 149.46875 135.085938 149.667969 135.136719 149.972656 135.085938 Z M 150.359375 117.324219 C 150.367188 117.316406 150.410156 117.3125 150.464844 117.308594 C 150.316406 117.304688 150.191406 117.304688 150.203125 117.316406 Z M 150.742188 135.058594 C 150.59375 135.054688 150.46875 135.054688 150.386719 135.058594 C 150.507812 135.0625 150.644531 135.066406 150.742188 135.058594 Z M 151.191406 117.609375 C 151.148438 117.605469 151.113281 117.601562 151.082031 117.601562 C 151.03125 117.601562 150.984375 117.605469 150.957031 117.609375 Z M 153.03125 132.925781 C 153.027344 132.871094 153.027344 132.828125 153.023438 132.800781 L 153.023438 133.035156 C 153.023438 132.992188 153.027344 132.953125 153.03125 132.925781 Z M 153.21875 120.242188 C 153.222656 120.125 153.222656 119.984375 153.21875 119.890625 C 153.210938 120.039062 153.210938 120.164062 153.21875 120.242188 Z M 153.222656 121.335938 C 153.242188 121.160156 153.292969 120.964844 153.246094 120.65625 C 153.1875 120.90625 153.246094 121.027344 153.222656 121.335938 C 153.21875 121.363281 153.21875 121.386719 153.214844 121.414062 C 153.21875 121.386719 153.21875 121.363281 153.222656 121.335938 Z M 153.316406 132.046875 L 153.308594 132.203125 C 153.3125 132.210938 153.320312 132.253906 153.324219 132.304688 C 153.328125 132.160156 153.328125 132.035156 153.316406 132.046875 Z M 135.429688 120.011719 C 135.429688 120.03125 135.425781 120.054688 135.425781 120.085938 Z M 135.429688 120.011719 "/></g></g></svg>