<svg xmlns="http://www.w3.org/2000/svg" xmlns:xlink="http://www.w3.org/1999/xlink" width="500" zoomAndPan="magnify" viewBox="0 0 375 374.999991" height="500" preserveAspectRatio="xMidYMid meet" version="1.2"><defs><clipPath id="df7d41e0d3"><path d="M 7 159.179688 L 222.929688 159.179688 L 222.929688 375 L 7 375 Z M 7 159.179688 "/></clipPath><clipPath id="a1f3fbc8c1"><path d="M 84 7 L 361 7 L 361 284 L 84 284 Z M 84 7 "/></clipPath><clipPath id="9dc79ded3f"><path d="M 353.253906 0 L 368.214844 276.058594 L 92.152344 291.019531 L 77.195312 14.960938 Z M 353.253906 0 "/></clipPath><clipPath id="56ec2a6260"><path d="M 353.253906 0 L 368.214844 276.058594 L 92.152344 291.019531 L 77.195312 14.960938 Z M 353.253906 0 "/></clipPath><clipPath id="578d351646"><path d="M 137.628906 0 L 204.425781 0 L 204.425781 66.796875 L 137.628906 66.796875 Z M 137.628906 0 "/></clipPath><clipPath id="9bf24100f5"><path d="M 286.066406 33.203125 L 352.863281 33.203125 L 352.863281 100 L 286.066406 100 Z M 286.066406 33.203125 "/></clipPath><clipPath id="3287902321"><path d="M 286.066406 189.941406 L 352.863281 189.941406 L 352.863281 256.738281 L 286.066406 256.738281 Z M 286.066406 189.941406 "/></clipPath></defs><g id="f0ce7f0879"><g clip-rule="nonzero" clip-path="url(#df7d41e0d3)"><path style=" stroke:none;fill-rule:nonzero;fill:#5170ff;fill-opacity:1;" d="M 191.433594 159.179688 L 37.921875 159.179688 C 36.914062 159.179688 35.90625 159.230469 34.90625 159.332031 C 33.902344 159.429688 32.90625 159.578125 31.921875 159.777344 C 30.933594 159.972656 29.957031 160.21875 28.992188 160.511719 C 28.027344 160.804688 27.082031 161.144531 26.152344 161.53125 C 25.21875 161.914062 24.3125 162.347656 23.421875 162.820312 C 22.535156 163.296875 21.671875 163.8125 20.835938 164.375 C 19.996094 164.933594 19.1875 165.535156 18.410156 166.171875 C 17.632812 166.8125 16.886719 167.488281 16.175781 168.199219 C 15.460938 168.914062 14.785156 169.65625 14.148438 170.4375 C 13.507812 171.214844 12.90625 172.023438 12.347656 172.859375 C 11.789062 173.699219 11.269531 174.5625 10.796875 175.449219 C 10.320312 176.335938 9.890625 177.246094 9.503906 178.175781 C 9.117188 179.109375 8.777344 180.054688 8.484375 181.019531 C 8.191406 181.984375 7.945312 182.957031 7.75 183.945312 C 7.550781 184.933594 7.402344 185.929688 7.304688 186.933594 C 7.203125 187.933594 7.15625 188.9375 7.152344 189.945312 L 7.152344 366.546875 C 7.152344 367.28125 7.257812 368 7.464844 368.703125 C 7.671875 369.40625 7.972656 370.066406 8.367188 370.683594 C 8.765625 371.300781 9.238281 371.851562 9.792969 372.332031 C 10.347656 372.816406 10.957031 373.210938 11.625 373.515625 C 12.289062 373.824219 12.988281 374.03125 13.710938 374.136719 C 14.4375 374.242188 15.164062 374.246094 15.890625 374.144531 C 16.617188 374.042969 17.316406 373.84375 17.984375 373.542969 C 18.65625 373.242188 19.269531 372.851562 19.824219 372.375 L 71.4375 328.144531 L 191.433594 328.144531 C 192.441406 328.144531 193.445312 328.09375 194.449219 327.992188 C 195.449219 327.894531 196.445312 327.746094 197.433594 327.546875 C 198.421875 327.351562 199.398438 327.105469 200.359375 326.8125 C 201.324219 326.519531 202.269531 326.179688 203.203125 325.792969 C 204.132812 325.410156 205.042969 324.976562 205.929688 324.503906 C 206.816406 324.027344 207.679688 323.511719 208.519531 322.949219 C 209.355469 322.390625 210.164062 321.789062 210.941406 321.152344 C 211.722656 320.511719 212.46875 319.835938 213.179688 319.125 C 213.890625 318.410156 214.566406 317.667969 215.207031 316.886719 C 215.84375 316.109375 216.445312 315.300781 217.003906 314.464844 C 217.566406 313.625 218.082031 312.761719 218.558594 311.875 C 219.03125 310.988281 219.464844 310.078125 219.847656 309.148438 C 220.234375 308.214844 220.574219 307.269531 220.867188 306.304688 C 221.160156 305.339844 221.40625 304.367188 221.601562 303.378906 C 221.800781 302.390625 221.949219 301.394531 222.046875 300.390625 C 222.148438 299.390625 222.199219 298.386719 222.199219 297.378906 L 222.199219 189.945312 C 222.199219 188.9375 222.148438 187.933594 222.046875 186.933594 C 221.949219 185.929688 221.800781 184.933594 221.601562 183.945312 C 221.40625 182.957031 221.160156 181.984375 220.867188 181.019531 C 220.574219 180.054688 220.234375 179.109375 219.847656 178.175781 C 219.464844 177.246094 219.03125 176.335938 218.558594 175.449219 C 218.082031 174.5625 217.566406 173.699219 217.003906 172.859375 C 216.445312 172.023438 215.84375 171.214844 215.207031 170.4375 C 214.566406 169.65625 213.890625 168.914062 213.179688 168.199219 C 212.46875 167.488281 211.722656 166.8125 210.941406 166.171875 C 210.164062 165.535156 209.355469 164.933594 208.519531 164.375 C 207.679688 163.8125 206.816406 163.296875 205.929688 162.820312 C 205.042969 162.347656 204.132812 161.914062 203.203125 161.53125 C 202.269531 161.144531 201.324219 160.804688 200.359375 160.511719 C 199.398438 160.21875 198.421875 159.972656 197.433594 159.777344 C 196.445312 159.578125 195.449219 159.429688 194.449219 159.332031 C 193.445312 159.230469 192.441406 159.179688 191.433594 159.179688 Z M 114.675781 274.382812 L 68.59375 274.382812 C 68.089844 274.382812 67.589844 274.332031 67.097656 274.234375 C 66.601562 274.136719 66.121094 273.992188 65.65625 273.796875 C 65.191406 273.605469 64.746094 273.367188 64.328125 273.089844 C 63.910156 272.808594 63.519531 272.488281 63.164062 272.132812 C 62.808594 271.777344 62.488281 271.390625 62.210938 270.96875 C 61.929688 270.550781 61.691406 270.109375 61.5 269.640625 C 61.304688 269.175781 61.160156 268.695312 61.0625 268.199219 C 60.964844 267.707031 60.914062 267.207031 60.914062 266.703125 C 60.914062 266.199219 60.964844 265.699219 61.0625 265.203125 C 61.160156 264.710938 61.304688 264.230469 61.5 263.761719 C 61.691406 263.296875 61.929688 262.855469 62.210938 262.4375 C 62.488281 262.015625 62.808594 261.628906 63.164062 261.273438 C 63.519531 260.914062 63.910156 260.597656 64.328125 260.316406 C 64.746094 260.035156 65.191406 259.800781 65.65625 259.605469 C 66.121094 259.414062 66.601562 259.269531 67.097656 259.171875 C 67.589844 259.070312 68.089844 259.023438 68.59375 259.023438 L 114.675781 259.023438 C 115.179688 259.023438 115.679688 259.070312 116.175781 259.171875 C 116.667969 259.269531 117.148438 259.414062 117.617188 259.605469 C 118.082031 259.800781 118.523438 260.035156 118.945312 260.316406 C 119.363281 260.597656 119.75 260.914062 120.105469 261.273438 C 120.464844 261.628906 120.78125 262.015625 121.0625 262.4375 C 121.34375 262.855469 121.578125 263.296875 121.773438 263.761719 C 121.964844 264.230469 122.109375 264.710938 122.210938 265.203125 C 122.308594 265.699219 122.355469 266.199219 122.355469 266.703125 C 122.355469 267.207031 122.308594 267.707031 122.210938 268.199219 C 122.109375 268.695312 121.964844 269.175781 121.773438 269.640625 C 121.578125 270.109375 121.34375 270.550781 121.0625 270.96875 C 120.78125 271.390625 120.464844 271.777344 120.105469 272.132812 C 119.75 272.488281 119.363281 272.808594 118.945312 273.089844 C 118.523438 273.367188 118.082031 273.605469 117.617188 273.796875 C 117.148438 273.992188 116.667969 274.136719 116.175781 274.234375 C 115.679688 274.332031 115.179688 274.382812 114.675781 274.382812 Z M 160.757812 228.300781 L 68.59375 228.300781 C 68.089844 228.300781 67.589844 228.253906 67.097656 228.152344 C 66.601562 228.054688 66.121094 227.910156 65.65625 227.71875 C 65.191406 227.523438 64.746094 227.289062 64.328125 227.007812 C 63.910156 226.726562 63.519531 226.410156 63.164062 226.050781 C 62.808594 225.695312 62.488281 225.308594 62.210938 224.886719 C 61.929688 224.46875 61.691406 224.027344 61.5 223.558594 C 61.304688 223.09375 61.160156 222.613281 61.0625 222.121094 C 60.964844 221.625 60.914062 221.125 60.914062 220.621094 C 60.914062 220.117188 60.964844 219.617188 61.0625 219.125 C 61.160156 218.628906 61.304688 218.148438 61.5 217.683594 C 61.691406 217.214844 61.929688 216.773438 62.210938 216.355469 C 62.488281 215.933594 62.808594 215.546875 63.164062 215.191406 C 63.519531 214.835938 63.910156 214.515625 64.328125 214.234375 C 64.746094 213.957031 65.191406 213.71875 65.65625 213.527344 C 66.121094 213.332031 66.601562 213.1875 67.097656 213.089844 C 67.589844 212.992188 68.089844 212.941406 68.59375 212.941406 L 160.757812 212.941406 C 161.261719 212.941406 161.761719 212.992188 162.257812 213.089844 C 162.75 213.1875 163.230469 213.332031 163.695312 213.527344 C 164.164062 213.71875 164.605469 213.957031 165.023438 214.234375 C 165.445312 214.515625 165.832031 214.835938 166.1875 215.191406 C 166.546875 215.546875 166.863281 215.933594 167.144531 216.355469 C 167.425781 216.773438 167.660156 217.214844 167.851562 217.683594 C 168.046875 218.148438 168.191406 218.628906 168.289062 219.125 C 168.390625 219.617188 168.4375 220.117188 168.4375 220.621094 C 168.4375 221.125 168.390625 221.625 168.289062 222.121094 C 168.191406 222.613281 168.046875 223.09375 167.851562 223.558594 C 167.660156 224.027344 167.425781 224.46875 167.144531 224.886719 C 166.863281 225.308594 166.546875 225.695312 166.1875 226.050781 C 165.832031 226.410156 165.445312 226.726562 165.023438 227.007812 C 164.605469 227.289062 164.164062 227.523438 163.695312 227.71875 C 163.230469 227.910156 162.75 228.054688 162.257812 228.152344 C 161.761719 228.253906 161.261719 228.300781 160.757812 228.300781 Z M 160.757812 228.300781 "/></g><g clip-rule="nonzero" clip-path="url(#a1f3fbc8c1)"><g clip-rule="nonzero" clip-path="url(#9dc79ded3f)"><g clip-rule="nonzero" clip-path="url(#56ec2a6260)"><path style=" stroke:none;fill-rule:nonzero;fill:#7ed957;fill-opacity:1;" d="M 84.65625 152.972656 C 80.535156 76.902344 139.109375 11.65625 215.246094 7.53125 C 291.363281 3.40625 356.664062 61.941406 360.785156 138.011719 C 364.90625 214.078125 306.316406 279.328125 230.195312 283.453125 L 228.726562 256.324219 C 289.890625 253.007812 336.964844 200.59375 333.652344 139.480469 C 330.339844 78.367188 277.878906 31.347656 216.714844 34.660156 C 155.550781 37.976562 108.476562 90.390625 111.789062 151.503906 Z M 84.65625 152.972656 "/></g></g></g><g clip-rule="nonzero" clip-path="url(#578d351646)"><path style=" stroke:none;fill-rule:nonzero;fill:#7ed957;fill-opacity:1;" d="M 204.027344 33.199219 C 204.027344 34.289062 203.976562 35.371094 203.867188 36.453125 C 203.761719 37.535156 203.601562 38.609375 203.390625 39.675781 C 203.179688 40.742188 202.914062 41.796875 202.597656 42.835938 C 202.285156 43.878906 201.917969 44.902344 201.5 45.90625 C 201.085938 46.910156 200.621094 47.890625 200.109375 48.851562 C 199.597656 49.808594 199.039062 50.742188 198.433594 51.644531 C 197.828125 52.550781 197.183594 53.421875 196.492188 54.261719 C 195.804688 55.101562 195.074219 55.90625 194.304688 56.675781 C 193.535156 57.445312 192.730469 58.175781 191.890625 58.863281 C 191.050781 59.554688 190.179688 60.199219 189.273438 60.804688 C 188.371094 61.410156 187.4375 61.96875 186.480469 62.480469 C 185.519531 62.992188 184.539062 63.457031 183.535156 63.871094 C 182.53125 64.289062 181.507812 64.65625 180.464844 64.96875 C 179.425781 65.285156 178.371094 65.550781 177.304688 65.761719 C 176.238281 65.972656 175.164062 66.132812 174.082031 66.238281 C 173 66.347656 171.917969 66.398438 170.828125 66.398438 C 169.742188 66.398438 168.65625 66.347656 167.574219 66.238281 C 166.492188 66.132812 165.417969 65.972656 164.351562 65.761719 C 163.285156 65.550781 162.230469 65.285156 161.191406 64.96875 C 160.152344 64.65625 159.128906 64.289062 158.125 63.871094 C 157.121094 63.457031 156.136719 62.992188 155.179688 62.480469 C 154.21875 61.96875 153.289062 61.410156 152.382812 60.804688 C 151.480469 60.199219 150.609375 59.554688 149.765625 58.863281 C 148.925781 58.175781 148.121094 57.445312 147.351562 56.675781 C 146.585938 55.90625 145.855469 55.101562 145.164062 54.261719 C 144.476562 53.421875 143.828125 52.550781 143.222656 51.644531 C 142.621094 50.742188 142.0625 49.808594 141.550781 48.851562 C 141.035156 47.890625 140.570312 46.910156 140.15625 45.90625 C 139.738281 44.902344 139.375 43.878906 139.058594 42.835938 C 138.742188 41.796875 138.480469 40.742188 138.265625 39.675781 C 138.054688 38.609375 137.894531 37.535156 137.789062 36.453125 C 137.683594 35.371094 137.628906 34.289062 137.628906 33.199219 C 137.628906 32.113281 137.683594 31.027344 137.789062 29.945312 C 137.894531 28.863281 138.054688 27.789062 138.265625 26.722656 C 138.480469 25.65625 138.742188 24.601562 139.058594 23.5625 C 139.375 22.523438 139.738281 21.5 140.15625 20.496094 C 140.570312 19.492188 141.035156 18.507812 141.550781 17.550781 C 142.0625 16.589844 142.621094 15.660156 143.222656 14.753906 C 143.828125 13.851562 144.476562 12.980469 145.164062 12.136719 C 145.855469 11.296875 146.585938 10.492188 147.351562 9.722656 C 148.121094 8.957031 148.925781 8.226562 149.765625 7.535156 C 150.609375 6.847656 151.480469 6.199219 152.382812 5.59375 C 153.289062 4.992188 154.21875 4.433594 155.179688 3.921875 C 156.136719 3.40625 157.121094 2.941406 158.125 2.527344 C 159.128906 2.109375 160.152344 1.746094 161.191406 1.429688 C 162.230469 1.113281 163.285156 0.851562 164.351562 0.636719 C 165.417969 0.425781 166.492188 0.265625 167.574219 0.160156 C 168.65625 0.0546875 169.742188 0 170.828125 0 C 171.917969 0 173 0.0546875 174.082031 0.160156 C 175.164062 0.265625 176.238281 0.425781 177.304688 0.636719 C 178.371094 0.851562 179.425781 1.113281 180.464844 1.429688 C 181.507812 1.746094 182.53125 2.109375 183.535156 2.527344 C 184.539062 2.941406 185.519531 3.40625 186.480469 3.921875 C 187.4375 4.433594 188.371094 4.992188 189.273438 5.59375 C 190.179688 6.199219 191.050781 6.847656 191.890625 7.535156 C 192.730469 8.226562 193.535156 8.957031 194.304688 9.722656 C 195.074219 10.492188 195.804688 11.296875 196.492188 12.136719 C 197.183594 12.980469 197.828125 13.851562 198.433594 14.753906 C 199.039062 15.660156 199.597656 16.589844 200.109375 17.550781 C 200.621094 18.507812 201.085938 19.492188 201.5 20.496094 C 201.917969 21.5 202.285156 22.523438 202.597656 23.5625 C 202.914062 24.601562 203.179688 25.65625 203.390625 26.722656 C 203.601562 27.789062 203.761719 28.863281 203.867188 29.945312 C 203.976562 31.027344 204.027344 32.113281 204.027344 33.199219 Z M 204.027344 33.199219 "/></g><g clip-rule="nonzero" clip-path="url(#9bf24100f5)"><path style=" stroke:none;fill-rule:nonzero;fill:#7ed957;fill-opacity:1;" d="M 352.464844 66.402344 C 352.464844 67.492188 352.414062 68.574219 352.304688 69.65625 C 352.199219 70.738281 352.039062 71.8125 351.828125 72.878906 C 351.617188 73.945312 351.351562 75 351.035156 76.039062 C 350.722656 77.082031 350.355469 78.105469 349.9375 79.109375 C 349.523438 80.113281 349.058594 81.09375 348.546875 82.054688 C 348.035156 83.011719 347.476562 83.945312 346.871094 84.847656 C 346.265625 85.753906 345.621094 86.625 344.929688 87.464844 C 344.242188 88.304688 343.511719 89.109375 342.742188 89.878906 C 341.972656 90.648438 341.167969 91.378906 340.328125 92.066406 C 339.488281 92.757812 338.617188 93.402344 337.710938 94.007812 C 336.808594 94.613281 335.875 95.171875 334.917969 95.683594 C 333.957031 96.195312 332.976562 96.660156 331.972656 97.074219 C 330.96875 97.492188 329.945312 97.859375 328.902344 98.171875 C 327.863281 98.488281 326.808594 98.753906 325.742188 98.964844 C 324.675781 99.175781 323.601562 99.335938 322.519531 99.441406 C 321.4375 99.550781 320.355469 99.601562 319.265625 99.601562 C 318.179688 99.601562 317.09375 99.550781 316.011719 99.441406 C 314.929688 99.335938 313.855469 99.175781 312.789062 98.964844 C 311.722656 98.753906 310.667969 98.488281 309.628906 98.171875 C 308.589844 97.859375 307.566406 97.492188 306.5625 97.074219 C 305.558594 96.660156 304.574219 96.195312 303.617188 95.683594 C 302.65625 95.171875 301.726562 94.613281 300.820312 94.007812 C 299.917969 93.402344 299.046875 92.757812 298.203125 92.066406 C 297.363281 91.378906 296.558594 90.648438 295.789062 89.878906 C 295.023438 89.109375 294.292969 88.304688 293.601562 87.464844 C 292.914062 86.625 292.265625 85.753906 291.660156 84.847656 C 291.058594 83.945312 290.5 83.011719 289.988281 82.054688 C 289.472656 81.09375 289.007812 80.113281 288.59375 79.109375 C 288.175781 78.105469 287.8125 77.082031 287.496094 76.039062 C 287.179688 75 286.917969 73.945312 286.703125 72.878906 C 286.492188 71.8125 286.332031 70.738281 286.226562 69.65625 C 286.121094 68.574219 286.066406 67.492188 286.066406 66.402344 C 286.066406 65.316406 286.121094 64.230469 286.226562 63.148438 C 286.332031 62.066406 286.492188 60.992188 286.703125 59.925781 C 286.917969 58.859375 287.179688 57.804688 287.496094 56.765625 C 287.8125 55.726562 288.175781 54.703125 288.59375 53.699219 C 289.007812 52.695312 289.472656 51.710938 289.988281 50.753906 C 290.5 49.792969 291.058594 48.863281 291.660156 47.957031 C 292.265625 47.054688 292.914062 46.183594 293.601562 45.339844 C 294.292969 44.5 295.023438 43.695312 295.789062 42.925781 C 296.558594 42.160156 297.363281 41.429688 298.203125 40.738281 C 299.046875 40.050781 299.917969 39.402344 300.820312 38.796875 C 301.726562 38.195312 302.65625 37.636719 303.617188 37.125 C 304.574219 36.609375 305.558594 36.144531 306.5625 35.730469 C 307.566406 35.3125 308.589844 34.949219 309.628906 34.632812 C 310.667969 34.316406 311.722656 34.054688 312.789062 33.839844 C 313.855469 33.628906 314.929688 33.46875 316.011719 33.363281 C 317.09375 33.257812 318.179688 33.203125 319.265625 33.203125 C 320.355469 33.203125 321.4375 33.257812 322.519531 33.363281 C 323.601562 33.46875 324.675781 33.628906 325.742188 33.839844 C 326.808594 34.054688 327.863281 34.316406 328.902344 34.632812 C 329.945312 34.949219 330.96875 35.3125 331.972656 35.730469 C 332.976562 36.144531 333.957031 36.609375 334.917969 37.125 C 335.875 37.636719 336.808594 38.195312 337.710938 38.796875 C 338.617188 39.402344 339.488281 40.050781 340.328125 40.738281 C 341.167969 41.429688 341.972656 42.160156 342.742188 42.925781 C 343.511719 43.695312 344.242188 44.5 344.929688 45.339844 C 345.621094 46.183594 346.265625 47.054688 346.871094 47.957031 C 347.476562 48.863281 348.035156 49.792969 348.546875 50.753906 C 349.058594 51.710938 349.523438 52.695312 349.9375 53.699219 C 350.355469 54.703125 350.722656 55.726562 351.035156 56.765625 C 351.351562 57.804688 351.617188 58.859375 351.828125 59.925781 C 352.039062 60.992188 352.199219 62.066406 352.304688 63.148438 C 352.414062 64.230469 352.464844 65.316406 352.464844 66.402344 Z M 352.464844 66.402344 "/></g><g clip-rule="nonzero" clip-path="url(#3287902321)"><path style=" stroke:none;fill-rule:nonzero;fill:#7ed957;fill-opacity:1;" d="M 352.464844 223.140625 C 352.464844 224.230469 352.414062 225.3125 352.304688 226.394531 C 352.199219 227.476562 352.039062 228.550781 351.828125 229.617188 C 351.617188 230.683594 351.351562 231.738281 351.035156 232.777344 C 350.722656 233.820312 350.355469 234.84375 349.9375 235.847656 C 349.523438 236.851562 349.058594 237.832031 348.546875 238.792969 C 348.035156 239.75 347.476562 240.683594 346.871094 241.585938 C 346.265625 242.492188 345.621094 243.363281 344.929688 244.203125 C 344.242188 245.042969 343.511719 245.847656 342.742188 246.617188 C 341.972656 247.386719 341.167969 248.117188 340.328125 248.804688 C 339.488281 249.496094 338.617188 250.140625 337.710938 250.746094 C 336.808594 251.351562 335.875 251.910156 334.917969 252.421875 C 333.957031 252.933594 332.976562 253.398438 331.972656 253.8125 C 330.96875 254.230469 329.945312 254.597656 328.902344 254.910156 C 327.863281 255.226562 326.808594 255.492188 325.742188 255.703125 C 324.675781 255.914062 323.601562 256.074219 322.519531 256.179688 C 321.4375 256.289062 320.355469 256.339844 319.265625 256.339844 C 318.179688 256.339844 317.09375 256.289062 316.011719 256.179688 C 314.929688 256.074219 313.855469 255.914062 312.789062 255.703125 C 311.722656 255.492188 310.667969 255.226562 309.628906 254.910156 C 308.589844 254.597656 307.566406 254.230469 306.5625 253.8125 C 305.558594 253.398438 304.574219 252.933594 303.617188 252.421875 C 302.65625 251.910156 301.726562 251.351562 300.820312 250.746094 C 299.917969 250.140625 299.046875 249.496094 298.203125 248.804688 C 297.363281 248.117188 296.558594 247.386719 295.789062 246.617188 C 295.023438 245.847656 294.292969 245.042969 293.601562 244.203125 C 292.914062 243.363281 292.265625 242.492188 291.660156 241.585938 C 291.058594 240.683594 290.5 239.75 289.988281 238.792969 C 289.472656 237.832031 289.007812 236.851562 288.59375 235.847656 C 288.175781 234.84375 287.8125 233.820312 287.496094 232.777344 C 287.179688 231.738281 286.917969 230.683594 286.703125 229.617188 C 286.492188 228.550781 286.332031 227.476562 286.226562 226.394531 C 286.121094 225.3125 286.066406 224.230469 286.066406 223.140625 C 286.066406 222.054688 286.121094 220.96875 286.226562 219.886719 C 286.332031 218.804688 286.492188 217.730469 286.703125 216.664062 C 286.917969 215.597656 287.179688 214.542969 287.496094 213.503906 C 287.8125 212.464844 288.175781 211.441406 288.59375 210.4375 C 289.007812 209.433594 289.472656 208.449219 289.988281 207.492188 C 290.5 206.53125 291.058594 205.601562 291.660156 204.695312 C 292.265625 203.792969 292.914062 202.921875 293.601562 202.078125 C 294.292969 201.238281 295.023438 200.433594 295.789062 199.664062 C 296.558594 198.898438 297.363281 198.167969 298.203125 197.476562 C 299.046875 196.789062 299.917969 196.140625 300.820312 195.535156 C 301.726562 194.933594 302.65625 194.375 303.617188 193.863281 C 304.574219 193.347656 305.558594 192.882812 306.5625 192.46875 C 307.566406 192.050781 308.589844 191.6875 309.628906 191.371094 C 310.667969 191.054688 311.722656 190.792969 312.789062 190.578125 C 313.855469 190.367188 314.929688 190.207031 316.011719 190.101562 C 317.09375 189.996094 318.179688 189.941406 319.265625 189.941406 C 320.355469 189.941406 321.4375 189.996094 322.519531 190.101562 C 323.601562 190.207031 324.675781 190.367188 325.742188 190.578125 C 326.808594 190.792969 327.863281 191.054688 328.902344 191.371094 C 329.945312 191.6875 330.96875 192.050781 331.972656 192.46875 C 332.976562 192.882812 333.957031 193.347656 334.917969 193.863281 C 335.875 194.375 336.808594 194.933594 337.710938 195.535156 C 338.617188 196.140625 339.488281 196.789062 340.328125 197.476562 C 341.167969 198.167969 341.972656 198.898438 342.742188 199.664062 C 343.511719 200.433594 344.242188 201.238281 344.929688 202.078125 C 345.621094 202.921875 346.265625 203.792969 346.871094 204.695312 C 347.476562 205.601562 348.035156 206.53125 348.546875 207.492188 C 349.058594 208.449219 349.523438 209.433594 349.9375 210.4375 C 350.355469 211.441406 350.722656 212.464844 351.035156 213.503906 C 351.351562 214.542969 351.617188 215.597656 351.828125 216.664062 C 352.039062 217.730469 352.199219 218.804688 352.304688 219.886719 C 352.414062 220.96875 352.464844 222.054688 352.464844 223.140625 Z M 352.464844 223.140625 "/></g></g></svg>